<svg width="37" height="32" viewBox="0 0 37 32" fill="none" xmlns="http://www.w3.org/2000/svg">
<g clip-path="url(#clip0_128_403)">
<path fill-rule="evenodd" clip-rule="evenodd" d="M6.73554 0.157165L0.0281858 14.246C0.00266238 14.2984 -0.00542583 14.3576 0.00510399 14.4149C0.0156338 14.4722 0.0442292 14.5247 0.0867085 14.5646L18.2017 31.9231C18.2531 31.9724 18.3216 32 18.3929 32C18.4642 32 18.5328 31.9724 18.5842 31.9231L36.6992 14.5657C36.7416 14.5258 36.7702 14.4733 36.7808 14.416C36.7913 14.3586 36.7832 14.2995 36.7577 14.2471L30.0503 0.158249C30.0287 0.110933 29.9939 0.0708501 29.9501 0.0427911C29.9062 0.0147322 29.8553 -0.000116069 29.8032 2.09732e-05H6.9848C6.93252 -0.000629455 6.88117 0.0138611 6.83694 0.0417447C6.79271 0.0696283 6.75749 0.109714 6.73554 0.157165V0.157165V0.157165Z" fill="#50AF95"/>
<path fill-rule="evenodd" clip-rule="evenodd" d="M20.7203 15.6927C20.5902 15.7024 19.9183 15.7425 18.4195 15.7425C17.2273 15.7425 16.3809 15.7068 16.084 15.6927C11.4769 15.49 8.03819 14.688 8.03819 13.7278C8.03819 12.7676 11.4769 11.9667 16.084 11.7608V14.894C16.3853 14.9156 17.2479 14.9666 18.4401 14.9666C19.8706 14.9666 20.587 14.907 20.7159 14.895V11.763C25.3132 11.9678 28.7444 12.7698 28.7444 13.7278C28.7444 14.6859 25.3143 15.4878 20.7159 15.6916L20.7203 15.6927ZM20.7203 11.4389V8.63527H27.1361V4.35986H9.66816V8.63527H16.0829V11.4379C10.869 11.6774 6.94794 12.7102 6.94794 13.9478C6.94794 15.1855 10.869 16.2172 16.0829 16.4578V25.4421H20.7192V16.4546C25.9212 16.215 29.8357 15.1833 29.8357 13.9468C29.8357 12.7102 25.9245 11.6785 20.7192 11.4379L20.7203 11.4389Z" fill="white"/>
</g>
<defs>
<clipPath id="clip0_128_403">
<rect width="36.7859" height="32" fill="white"/>
</clipPath>
</defs>
</svg>
