<svg width="32" height="32" viewBox="0 0 32 32" fill="none" xmlns="http://www.w3.org/2000/svg">
<g clip-path="url(#clip0_128_385)">
<path d="M16 0C24.8374 0 32 7.16407 32 16C32 24.8374 24.8374 32 16 32C7.16407 32 0 24.8366 0 16C0 7.16407 7.16407 0 16 0Z" fill="#F5AC37"/>
<path d="M16.5897 17.1296H22.6694C22.799 17.1296 22.8602 17.1296 22.8696 16.9597C22.9193 16.3412 22.9193 15.7191 22.8696 15.0999C22.8696 14.9796 22.8098 14.93 22.6795 14.93H10.5798C10.43 14.93 10.3897 14.9796 10.3897 15.12V16.8999C10.3897 17.1296 10.3897 17.1296 10.6295 17.1296H16.5897V17.1296ZM22.1906 12.8499C22.2079 12.8045 22.2079 12.7548 22.1906 12.7102C22.0891 12.4891 21.9689 12.2782 21.8292 12.0802C21.6189 11.7418 21.3713 11.43 21.089 11.1499C20.9558 10.9807 20.8017 10.8288 20.6289 10.6999C19.7635 9.96335 18.7346 9.44206 17.6287 9.17998C17.0707 9.0547 16.5004 8.99494 15.9287 8.99998H10.5589C10.4092 8.99998 10.389 9.05974 10.389 9.19006V12.7397C10.389 12.8895 10.389 12.9298 10.5791 12.9298H22.1186C22.1186 12.9298 22.2187 12.9096 22.2389 12.8499H22.1899H22.1906ZM22.1906 19.2097C22.0207 19.191 21.8494 19.191 21.6794 19.2097H10.5899C10.4401 19.2097 10.3897 19.2097 10.3897 19.4098V22.8803C10.3897 23.0401 10.3897 23.0804 10.5899 23.0804H15.7098C15.9547 23.0992 16.1995 23.0819 16.4392 23.0308C17.1823 22.9775 17.9131 22.8162 18.61 22.5505C18.8635 22.4627 19.1083 22.3482 19.3394 22.2107H19.4092C20.6095 21.5864 21.5844 20.6058 22.1993 19.4019C22.1993 19.4019 22.2691 19.2507 22.1906 19.2111V19.2097ZM8.38018 24.8797V24.82V22.49V21.7002V19.3501C8.38018 19.2198 8.38018 19.2003 8.22033 19.2003H6.05023C5.92999 19.2003 5.88031 19.2003 5.88031 19.0405V17.1404H8.20017C8.32977 17.1404 8.38018 17.1404 8.38018 16.9705V15.0905C8.38018 14.9703 8.38018 14.9408 8.22033 14.9408H6.05023C5.92999 14.9408 5.88031 14.9408 5.88031 14.7809V13.0212C5.88031 12.9111 5.88031 12.8815 6.04015 12.8815H8.19009C8.33985 12.8815 8.38018 12.8815 8.38018 12.6915V7.30148C8.38018 7.14164 8.38018 7.10132 8.58034 7.10132H16.0799C16.6243 7.12292 17.165 7.18268 17.6999 7.28132C18.8023 7.48508 19.8614 7.87893 20.8298 8.44125C21.4721 8.81926 22.0632 9.27574 22.5895 9.80135C22.9855 10.2125 23.3426 10.6574 23.6594 11.1312C23.9741 11.6114 24.2355 12.1248 24.4407 12.6612C24.4659 12.8009 24.5998 12.8952 24.7395 12.8715H26.5294C26.7591 12.8715 26.7591 12.8715 26.7692 13.0918V14.732C26.7692 14.8918 26.7094 14.9321 26.5488 14.9321H25.1686C25.0289 14.9321 24.9886 14.9321 24.9987 15.1121C25.0534 15.7212 25.0534 16.3325 24.9987 16.9417C24.9987 17.1116 24.9987 17.1317 25.1895 17.1317H26.7684C26.8383 17.2217 26.7684 17.3117 26.7684 17.4025C26.7785 17.5184 26.7785 17.6357 26.7684 17.7517V18.962C26.7684 19.1319 26.7188 19.1823 26.5683 19.1823H24.6783C24.5465 19.1571 24.4183 19.2414 24.3881 19.3724C23.9381 20.5424 23.2181 21.5915 22.2878 22.4324C21.948 22.7384 21.5909 23.0264 21.2179 23.2921C20.8176 23.5225 20.4281 23.7623 20.0177 23.9524C19.2624 24.2922 18.4704 24.5428 17.6575 24.7019C16.8856 24.8401 16.103 24.9028 15.3174 24.892H8.3773V24.8819L8.38018 24.8797Z" fill="#FEFEFD"/>
</g>
<defs>
<clipPath id="clip0_128_385">
<rect width="32" height="32" fill="white"/>
</clipPath>
</defs>
</svg>
