<svg width="32" height="33" viewBox="0 0 32 33" fill="none" xmlns="http://www.w3.org/2000/svg">
<path d="M25.8682 5.49304H6.11035V23.4624H25.8682V5.49304Z" fill="white"/>
<path fill-rule="evenodd" clip-rule="evenodd" d="M31.9895 16.0106C31.9895 24.8414 24.8309 31.9999 16.0001 31.9999C7.16942 31.9999 0.0107422 24.8414 0.0107422 16.0106C0.0107422 7.17991 7.16942 0.0212402 16.0001 0.0212402C24.8309 0.0212402 31.9895 7.17991 31.9895 16.0106ZM11.4692 22.3735H8.36609C7.71403 22.3735 7.39195 22.3735 7.19556 22.2479C6.98344 22.1104 6.85382 21.8826 6.83811 21.6311C6.82632 21.3995 6.98738 21.1166 7.30947 20.551L14.9714 7.0458C15.2974 6.47232 15.4624 6.18557 15.6705 6.07952C15.8944 5.96562 16.1615 5.96562 16.3854 6.07952C16.5936 6.18557 16.7586 6.47232 17.0846 7.0458L18.6597 9.79538L18.6678 9.80941C19.0199 10.4246 19.1985 10.7366 19.2764 11.0641C19.3628 11.4215 19.3628 11.7986 19.2764 12.1561C19.1979 12.486 19.0211 12.8003 18.6637 13.4248L14.639 20.5392L14.6286 20.5574C14.2742 21.1777 14.0946 21.4921 13.8456 21.7293C13.5746 21.9886 13.2485 22.177 12.8911 22.2833C12.5651 22.3735 12.1998 22.3735 11.4692 22.3735ZM19.3055 22.3735H23.7518C24.4078 22.3735 24.7378 22.3735 24.9343 22.2441C25.1464 22.1066 25.2799 21.8747 25.2918 21.6235C25.3031 21.3993 25.1455 21.1274 24.8368 20.5946C24.8262 20.5765 24.8155 20.558 24.8047 20.5393L22.5775 16.7292L22.5521 16.6863C22.2391 16.157 22.0812 15.8897 21.8783 15.7864C21.6545 15.6725 21.3911 15.6725 21.1673 15.7864C20.9631 15.8925 20.7981 16.1714 20.4721 16.7331L18.2528 20.5432L18.2452 20.5563C17.9203 21.1171 17.7579 21.3974 17.7697 21.6273C17.7854 21.8788 17.915 22.1104 18.1271 22.2479C18.3196 22.3735 18.6495 22.3735 19.3055 22.3735Z" fill="#E84142"/>
</svg>
