<svg width="32" height="32" viewBox="0 0 32 32" fill="none" xmlns="http://www.w3.org/2000/svg">
<g clip-path="url(#clip0_128_357)">
<path d="M31.5195 19.8705C29.3826 28.442 20.701 33.6584 12.1285 31.521C3.55958 29.3841 -1.65688 20.702 0.480977 12.1312C2.61695 3.5587 11.2985 -1.65814 19.8684 0.478775C28.4403 2.61569 33.6564 11.2987 31.5193 19.8706L31.5194 19.8705H31.5195Z" fill="#F7931A"/>
<path d="M23.0553 13.7204C23.3737 11.5912 21.7527 10.4466 19.536 9.68311L20.2551 6.79885L18.4994 6.36137L17.7993 9.16969C17.3378 9.05457 16.8637 8.94609 16.3926 8.83856L17.0977 6.01171L15.3431 5.57422L14.6236 8.45754C14.2416 8.37057 13.8665 8.28462 13.5025 8.19406L13.5045 8.18499L11.0833 7.58037L10.6163 9.45561C10.6163 9.45561 11.9189 9.7542 11.8915 9.77258C12.6024 9.95003 12.731 10.4207 12.7097 10.7937L11.8905 14.0796C11.9395 14.092 12.003 14.11 12.073 14.1381C12.0145 14.1236 11.9521 14.1077 11.8875 14.0922L10.7393 18.6952C10.6524 18.9112 10.4319 19.2354 9.9348 19.1123C9.9524 19.1378 8.65871 18.7939 8.65871 18.7939L7.78702 20.8036L10.0718 21.3732C10.4969 21.4798 10.9134 21.5913 11.3236 21.6962L10.5971 24.6135L12.3508 25.051L13.0703 22.1646C13.5494 22.2947 14.0143 22.4147 14.4695 22.5278L13.7524 25.4005L15.5082 25.838L16.2347 22.9261C19.2286 23.4927 21.4797 23.2643 22.4273 20.5563C23.1908 18.3761 22.3893 17.1185 20.8142 16.2984C21.9614 16.0339 22.8255 15.2793 23.0559 13.7207L23.0554 13.7203L23.0553 13.7204ZM19.0438 19.3455C18.5012 21.5258 14.8304 20.3472 13.6402 20.0517L14.6044 16.1867C15.7944 16.4838 19.6109 17.0718 19.0439 19.3455H19.0438ZM19.5868 13.6888C19.0919 15.672 16.0366 14.6645 15.0454 14.4174L15.9196 10.9121C16.9107 11.1592 20.1024 11.6203 19.587 13.6888H19.5868Z" fill="white"/>
</g>
<defs>
<clipPath id="clip0_128_357">
<rect width="32" height="32" fill="white"/>
</clipPath>
</defs>
</svg>
