<svg width="35" height="32" viewBox="0 0 35 32" fill="none" xmlns="http://www.w3.org/2000/svg">
<g clip-path="url(#clip0_128_324)">
<path d="M9.49379 15.8845C9.41991 17.1682 10.4081 18.2672 11.6918 18.3411C11.7379 18.3411 11.7841 18.3411 11.8303 18.3411C13.1232 18.3411 14.1668 17.2975 14.1576 16.0046C14.1576 14.7117 13.114 13.6681 11.8211 13.6773C10.5835 13.6773 9.55844 14.647 9.49379 15.8845Z" fill="#0033AD"/>
<path d="M0.794224 15.2841C0.37864 15.2564 0.0184668 15.5797 -3.57585e-06 15.9952C-0.018474 16.4108 0.295523 16.771 0.711108 16.7895C1.12669 16.8172 1.47763 16.4939 1.50534 16.0784C1.53304 15.6628 1.20981 15.3118 0.794224 15.2841Z" fill="#0033AD"/>
<path d="M9.34603 2.34558C9.71544 2.16088 9.8632 1.69912 9.6785 1.32971C9.49379 0.960301 9.03203 0.812538 8.66262 0.997242C8.29321 1.18195 8.14545 1.63447 8.33015 2.00388C8.51486 2.38252 8.96738 2.53952 9.34603 2.34558C9.34603 2.34558 9.33679 2.34558 9.34603 2.34558Z" fill="#0033AD"/>
<path d="M11.7102 6.47374C12.2828 6.18745 12.5137 5.48558 12.2274 4.91299C11.9411 4.34041 11.2392 4.10953 10.6667 4.39582C10.0941 4.68211 9.8632 5.38399 10.1495 5.95657C10.4358 6.52916 11.1377 6.76004 11.7102 6.47374Z" fill="#0033AD"/>
<path d="M3.74949 9.30893C4.19278 9.59522 4.78383 9.47516 5.07936 9.03187C5.36565 8.58858 5.24559 7.99753 4.8023 7.702C4.35901 7.41571 3.76796 7.53577 3.47243 7.97906C3.17691 8.42235 3.3062 9.02263 3.74949 9.30893Z" fill="#0033AD"/>
<path d="M5.16248 14.8687C4.51601 14.8317 3.97114 15.3212 3.9342 15.9676C3.89726 16.6141 4.38672 17.159 5.03319 17.1959C5.67965 17.2329 6.22453 16.7434 6.26147 16.0969C6.29841 15.4597 5.80894 14.9056 5.16248 14.8687Z" fill="#0033AD"/>
<path d="M3.87879 22.6909C3.40779 22.931 3.21385 23.5036 3.45397 23.9838C3.69408 24.4548 4.26667 24.6487 4.7469 24.4086C5.21789 24.1685 5.41183 23.5959 5.17172 23.1157C4.9316 22.6447 4.34978 22.4508 3.87879 22.6909Z" fill="#0033AD"/>
<path d="M8.40404 12.4581C9.04126 12.8737 9.8909 12.6982 10.2973 12.061C10.7128 11.4237 10.5374 10.5741 9.90014 10.1678C9.26291 9.75217 8.41327 9.92764 8.00692 10.5649C7.59134 11.1929 7.76681 12.0425 8.40404 12.4581Z" fill="#0033AD"/>
<path d="M22.7648 6.38141C23.3004 6.73235 24.03 6.58459 24.3809 6.04895C24.7319 5.5133 24.5841 4.78372 24.0485 4.43278C23.5128 4.08185 22.7833 4.22961 22.4323 4.76525C22.0721 5.31013 22.2199 6.03048 22.7648 6.38141Z" fill="#0033AD"/>
<path d="M25.1475 2.27173C25.4984 2.50261 25.9602 2.40102 26.191 2.05009C26.4219 1.69915 26.3203 1.23739 25.9694 1.00651C25.6185 0.775626 25.1567 0.877213 24.9258 1.21892C24.7042 1.56985 24.8058 2.04085 25.1475 2.27173Z" fill="#0033AD"/>
<path d="M22.9403 13.6587C21.6566 13.5848 20.5483 14.573 20.4837 15.8567C20.4098 17.1403 21.398 18.2486 22.6817 18.3132C22.7278 18.3132 22.774 18.3132 22.811 18.3132C24.0947 18.3132 25.1382 17.2696 25.1382 15.9767C25.1475 14.7484 24.1778 13.7233 22.9403 13.6587Z" fill="#0033AD"/>
<path d="M12.4768 12.2921C12.8739 13.0771 13.6773 13.5758 14.5639 13.5758C15.8476 13.5758 16.8912 12.5322 16.8912 11.2393C16.8912 10.8791 16.8081 10.5189 16.6418 10.1865C16.06 9.03205 14.6563 8.57029 13.5111 9.15211C12.3567 9.74316 11.8949 11.1469 12.4768 12.2921Z" fill="#0033AD"/>
<path d="M30.7532 9.30903C31.2242 9.06891 31.4089 8.48709 31.1688 8.0161C30.9287 7.5451 30.3469 7.3604 29.8759 7.60051C29.4049 7.84063 29.2202 8.41321 29.4511 8.88421C29.7004 9.3552 30.273 9.54914 30.7532 9.30903Z" fill="#0033AD"/>
<path d="M24.8427 10.0478C24.1685 10.3895 23.8915 11.2114 24.2332 11.8856C24.5749 12.5598 25.3968 12.8368 26.071 12.4951C26.7452 12.1534 27.0222 11.3315 26.6805 10.6573C26.3388 9.98315 25.5169 9.71533 24.8427 10.0478Z" fill="#0033AD"/>
<path d="M17.2237 1.92082C17.7501 1.94853 18.2026 1.54218 18.2395 1.01577C18.2765 0.489367 17.8609 0.0368416 17.3345 -9.92517e-05C16.8081 -0.0278049 16.3556 0.369309 16.3186 0.895716C16.2909 1.43136 16.6973 1.88388 17.2237 1.92082Z" fill="#0033AD"/>
<path d="M17.2144 7.95152C17.9717 7.9977 18.6182 7.41588 18.6551 6.65859C18.7013 5.90131 18.1195 5.25484 17.3622 5.2179C16.6049 5.17173 15.9584 5.75354 15.9215 6.51083C15.8846 7.26812 16.4571 7.91458 17.2144 7.95152Z" fill="#0033AD"/>
<path d="M9.78932 21.9521C10.4635 21.6104 10.7405 20.7884 10.3988 20.1143C10.0571 19.4401 9.2352 19.163 8.56103 19.5047C7.88686 19.8464 7.60981 20.6684 7.95151 21.3425C8.29321 22.0167 9.11515 22.2938 9.78932 21.9521Z" fill="#0033AD"/>
<path d="M18.101 9.9554C17.3991 11.0359 17.6947 12.4766 18.7752 13.1785C19.8557 13.8804 21.2964 13.5848 21.9983 12.5043C22.7001 11.4238 22.4046 9.98311 21.3241 9.28123C20.9454 9.03188 20.5022 8.90259 20.0496 8.90259C19.2646 8.90259 18.5351 9.2997 18.101 9.9554Z" fill="#0033AD"/>
<path d="M22.1553 19.7079C21.5734 18.5535 20.1697 18.0918 19.0245 18.6736C17.8701 19.2554 17.4084 20.6592 17.9902 21.8043C18.572 22.9587 19.9758 23.4205 21.1209 22.8387C22.2661 22.2661 22.7371 20.8808 22.1645 19.7264C22.1645 19.7172 22.1645 19.7172 22.1553 19.7079Z" fill="#0033AD"/>
<path d="M26.228 19.5415C25.5908 19.1259 24.7411 19.3014 24.3348 19.9386C23.9192 20.5759 24.0947 21.4255 24.7319 21.8319C25.3691 22.2474 26.2188 22.072 26.6251 21.4347C27.0407 20.8068 26.8652 19.9571 26.228 19.5415Z" fill="#0033AD"/>
<path d="M30.6978 16.0415C30.7348 15.3951 30.2453 14.8502 29.5988 14.8132C28.9524 14.7763 28.4075 15.2658 28.3706 15.9122C28.3336 16.5587 28.8231 17.1036 29.4695 17.1405C30.1068 17.1775 30.6609 16.6788 30.6978 16.0415Z" fill="#0033AD"/>
<path d="M33.9209 15.2104C33.5053 15.1827 33.1452 15.5059 33.1267 15.9215C33.1082 16.3371 33.4222 16.6973 33.8378 16.7157C34.2534 16.7434 34.6043 16.4202 34.632 16.0046C34.6505 15.589 34.3365 15.2381 33.9209 15.2104Z" fill="#0033AD"/>
<path d="M30.8825 22.6908C30.4392 22.4045 29.8482 22.5245 29.5527 22.9678C29.2664 23.4111 29.3864 24.0022 29.8297 24.2977C30.273 24.584 30.8641 24.4639 31.1596 24.0206C31.4551 23.5773 31.3258 22.9771 30.8825 22.6908Z" fill="#0033AD"/>
<path d="M9.47532 29.7279C9.12438 29.4971 8.66262 29.5987 8.43174 29.9404C8.20086 30.2913 8.30245 30.7531 8.64415 30.9839C8.99509 31.2148 9.45685 31.1132 9.68773 30.7715C9.92785 30.4298 9.82626 29.9588 9.47532 29.7279Z" fill="#0033AD"/>
<path d="M25.286 29.6541C24.9166 29.8388 24.7688 30.3006 24.9535 30.67C25.1382 31.0394 25.6 31.1872 25.9694 31.0025C26.3388 30.8178 26.4866 30.3653 26.3019 29.9958C26.1172 29.6172 25.6646 29.4602 25.286 29.6541C25.286 29.6541 25.2952 29.6541 25.286 29.6541Z" fill="#0033AD"/>
<path d="M16.531 22.0445C17.2329 20.9639 16.9374 19.5232 15.8569 18.8121C14.7763 18.1103 13.3356 18.4058 12.6245 19.4863C11.9134 20.5668 12.2182 22.0075 13.2987 22.7186C13.6773 22.968 14.1206 23.0973 14.5732 23.0973C15.3674 23.1065 16.097 22.7094 16.531 22.0445Z" fill="#0033AD"/>
<path d="M11.8672 25.6183C11.3316 25.2674 10.602 25.4152 10.2511 25.9508C9.90014 26.4864 10.0479 27.216 10.5835 27.567C11.1192 27.9179 11.8488 27.7701 12.1997 27.2345C12.5599 26.6988 12.4121 25.9693 11.8672 25.6183Z" fill="#0033AD"/>
<path d="M17.3068 30.079C16.7804 30.0513 16.3278 30.4576 16.2909 30.984C16.254 31.5104 16.6695 31.963 17.196 31.9999C17.7224 32.0276 18.1749 31.6305 18.2118 31.1041C18.2395 30.5684 17.8332 30.1159 17.3068 30.079Z" fill="#0033AD"/>
<path d="M17.316 24.0485C16.5587 24.0023 15.9123 24.5841 15.8753 25.3414C15.8291 26.0987 16.411 26.7451 17.1683 26.7821C17.9255 26.819 18.572 26.2464 18.6089 25.4892C18.6551 24.7411 18.0733 24.0854 17.316 24.0485Z" fill="#0033AD"/>
<path d="M22.9218 25.5261C22.3492 25.8216 22.1183 26.5235 22.4138 27.0961C22.7094 27.6687 23.4113 27.8995 23.9838 27.604C24.5564 27.3177 24.7873 26.6159 24.501 26.0433C24.2055 25.4707 23.5036 25.2306 22.9218 25.5261Z" fill="#0033AD"/>
</g>
<defs>
<clipPath id="clip0_128_324">
<rect width="34.632" height="32" fill="white"/>
</clipPath>
</defs>
</svg>
