<svg width="41" height="32" viewBox="0 0 41 32" fill="none" xmlns="http://www.w3.org/2000/svg">
<g clip-path="url(#clip0_128_362)">
<path d="M6.63201 24.4236C6.8784 24.1772 7.21719 24.0334 7.57651 24.0334H40.1617C40.7571 24.0334 41.0549 24.7521 40.6339 25.173L34.197 31.61C33.9506 31.8564 33.6118 32.0001 33.2525 32.0001H0.667303C0.0718583 32.0001 -0.225864 31.2814 0.195054 30.8605L6.63201 24.4236Z" fill="url(#paint0_linear_128_362)"/>
<path d="M6.63201 0.390119C6.88867 0.143728 7.22746 0 7.57651 0H40.1617C40.7571 0 41.0549 0.71864 40.6339 1.13956L34.197 7.57652C33.9506 7.82291 33.6118 7.96663 33.2525 7.96663H0.667303C0.0718583 7.96663 -0.225864 7.24799 0.195054 6.82708L6.63201 0.390119Z" fill="url(#paint1_linear_128_362)"/>
<path d="M34.197 12.3298C33.9506 12.0834 33.6118 11.9397 33.2525 11.9397H0.667303C0.0718583 11.9397 -0.225864 12.6583 0.195054 13.0793L6.63201 19.5162C6.8784 19.7626 7.21719 19.9063 7.57651 19.9063H40.1617C40.7571 19.9063 41.0549 19.1877 40.6339 18.7668L34.197 12.3298Z" fill="url(#paint2_linear_128_362)"/>
</g>
<defs>
<linearGradient id="paint0_linear_128_362" x1="37.0489" y1="-3.84519" x2="14.4973" y2="39.3501" gradientUnits="userSpaceOnUse">
<stop stop-color="#00FFA3"/>
<stop offset="1" stop-color="#DC1FFF"/>
</linearGradient>
<linearGradient id="paint1_linear_128_362" x1="27.1881" y1="-8.99341" x2="4.63655" y2="34.2019" gradientUnits="userSpaceOnUse">
<stop stop-color="#00FFA3"/>
<stop offset="1" stop-color="#DC1FFF"/>
</linearGradient>
<linearGradient id="paint2_linear_128_362" x1="32.0871" y1="-6.43571" x2="9.53554" y2="36.7596" gradientUnits="userSpaceOnUse">
<stop stop-color="#00FFA3"/>
<stop offset="1" stop-color="#DC1FFF"/>
</linearGradient>
<clipPath id="clip0_128_362">
<rect width="40.829" height="32" fill="white"/>
</clipPath>
</defs>
</svg>
