<svg width="39" height="32" viewBox="0 0 39 32" fill="none" xmlns="http://www.w3.org/2000/svg">
<g clip-path="url(#clip0_128_366)">
<path d="M32.9811 0H38.566L26.9434 11.5079C22.7343 15.6732 15.9102 15.6732 11.6981 11.5079L0.0709229 0H5.66036L14.4905 8.74189C15.7771 10.0099 17.5109 10.7207 19.3173 10.7207C21.1237 10.7207 22.8576 10.0099 24.1441 8.74189L32.9811 0Z" fill="#23292F"/>
<path d="M5.58868 32H0L11.6981 20.4211C15.9072 16.2558 22.7313 16.2558 26.9434 20.4211L38.6415 32H33.0566L24.1509 23.1871C22.8644 21.9191 21.1305 21.2083 19.3242 21.2083C17.5178 21.2083 15.7839 21.9191 14.4974 23.1871L5.58868 32Z" fill="#23292F"/>
</g>
<defs>
<clipPath id="clip0_128_366">
<rect width="38.6415" height="32" fill="white"/>
</clipPath>
</defs>
</svg>
