<svg width="32" height="32" viewBox="0 0 32 32" fill="none" xmlns="http://www.w3.org/2000/svg">
<circle cx="16" cy="16" r="16" fill="white"/>
<path d="M20.9008 11.8071C20.517 11.5816 20.0235 11.5816 19.5849 11.8071L16.5144 13.6677L14.4308 14.8516L11.4151 16.7122C11.0313 16.9377 10.5379 16.9377 10.0992 16.7122L7.74151 15.2463C7.3577 15.0208 7.08355 14.5697 7.08355 14.0623V11.2433C7.08355 10.7923 7.30287 10.3412 7.74151 10.0593L10.0992 8.64985C10.483 8.42433 10.9765 8.42433 11.4151 8.64985L13.7728 10.1157C14.1567 10.3412 14.4308 10.7923 14.4308 11.2997V13.1602L16.5144 11.9199V10.003C16.5144 9.55193 16.295 9.10089 15.8564 8.81899L11.47 6.16914C11.0862 5.94362 10.5927 5.94362 10.154 6.16914L5.65796 8.87537C5.21932 9.10089 5 9.55193 5 10.003V15.3027C5 15.7537 5.21932 16.2047 5.65796 16.4866L10.0992 19.1365C10.483 19.362 10.9765 19.362 11.4151 19.1365L14.4308 17.3323L16.5144 16.092L19.53 14.2878C19.9138 14.0623 20.4073 14.0623 20.846 14.2878L23.2037 15.6973C23.5875 15.9228 23.8616 16.3739 23.8616 16.8813V19.7003C23.8616 20.1513 23.6423 20.6024 23.2037 20.8843L20.9008 22.2938C20.517 22.5193 20.0235 22.5193 19.5849 22.2938L17.2272 20.8843C16.8433 20.6588 16.5692 20.2077 16.5692 19.7003V17.8961L14.4856 19.1365V20.997C14.4856 21.4481 14.705 21.8991 15.1436 22.181L19.5849 24.8309C19.9687 25.0564 20.4621 25.0564 20.9008 24.8309L25.342 22.181C25.7258 21.9555 26 21.5045 26 20.997V15.6409C26 15.1899 25.7807 14.7389 25.342 14.457L20.9008 11.8071Z" fill="#8247E5"/>
</svg>
