<svg width="13" height="18" fill="none" xmlns="http://www.w3.org/2000/svg">
  <path d="M12.75 7.197a.718.718 0 0 1-.217.514.746.746 0 0 1-1.044 0L6.375 2.678 1.26 7.71a.746.746 0 0 1-1.044 0 .718.718 0 0 1 0-1.027l5.636-5.547a.746.746 0 0 1 1.044 0l5.637 5.547a.717.717 0 0 1 .216.513ZM0 11.727c0-.186.072-.372.216-.514a.746.746 0 0 1 1.044 0l5.114 5.033 5.115-5.033a.746.746 0 0 1 1.044 0 .718.718 0 0 1 0 1.028l-5.636 5.546a.746.746 0 0 1-1.044 0L.217 12.241A.717.717 0 0 1 0 11.727Z" fill="#767676"/>
</svg>