<svg width="30" height="19" viewBox="0 0 30 19" fill="none" xmlns="http://www.w3.org/2000/svg">
<path d="M6.14164 3.59252C11.034 -1.19751 18.966 -1.19751 23.8584 3.59252L24.4472 4.16898C24.6918 4.40851 24.6918 4.7968 24.4472 5.03633L22.433 7.00836C22.3107 7.12812 22.1124 7.12812 21.9901 7.00836L21.1798 6.21508C17.7668 2.87341 12.2332 2.87341 8.82015 6.21508L7.95242 7.06461C7.83015 7.18437 7.63187 7.18437 7.50953 7.06461L5.49539 5.09258C5.2507 4.85305 5.2507 4.46476 5.49539 4.22523L6.14164 3.59252ZM28.0239 7.67094L29.8165 9.42601C30.0612 9.66554 30.0612 10.0538 29.8165 10.2934L21.7335 18.2075C21.4889 18.4469 21.0923 18.4469 20.8476 18.2075L15.1108 12.5906C15.0496 12.5307 14.9505 12.5307 14.8893 12.5906L9.15257 18.2075C8.90796 18.4469 8.51132 18.4469 8.26671 18.2075L0.183463 10.2933C-0.0611543 10.0537 -0.0611543 9.66546 0.183463 9.42593L1.97609 7.67078C2.2207 7.43133 2.61731 7.43133 2.86193 7.67078L8.5989 13.2877C8.66 13.3476 8.75914 13.3476 8.82031 13.2877L14.5569 7.67078C14.8016 7.43133 15.1982 7.43133 15.4428 7.67078L21.1798 13.2877C21.2409 13.3476 21.3401 13.3476 21.4012 13.2877L27.138 7.67094C27.3827 7.4314 27.7793 7.4314 28.0239 7.67094Z" fill="#3396FF"/>
</svg>
