<svg width="30" height="30" viewBox="0 0 30 30" fill="none" xmlns="http://www.w3.org/2000/svg">
<path d="M15 0C6.70946 0 0 6.70946 0 15C0 23.2905 6.70946 30 15 30C23.2905 30 30 23.2905 30 15C30 6.70946 23.2905 0 15 0ZM15 23.777C10.1554 23.777 6.22297 19.8446 6.22297 15C6.22297 10.1554 10.1554 6.22297 15 6.22297C19.8446 6.22297 23.777 10.1554 23.777 15C23.777 19.8446 19.8446 23.777 15 23.777Z" fill="url(#paint0_linear_158_36)"/>
<path d="M17.1283 17.8175H12.8716C12.5067 17.8175 12.2026 17.5134 12.2026 17.1486V12.8716C12.2026 12.5067 12.5067 12.2026 12.8716 12.2026H17.1486C17.5134 12.2026 17.8175 12.5067 17.8175 12.8716V17.1486C17.8175 17.5134 17.5134 17.8175 17.1283 17.8175Z" fill="#2059EB"/>
<defs>
<linearGradient id="paint0_linear_158_36" x1="15" y1="30" x2="15" y2="0" gradientUnits="userSpaceOnUse">
<stop stop-color="#1447EA"/>
<stop offset="1" stop-color="#2B65FB"/>
</linearGradient>
</defs>
</svg>
