<svg width="127" height="32" viewBox="0 0 127 32" fill="none" xmlns="http://www.w3.org/2000/svg">
<path d="M14.862 0.434212L4.48508 6.47481C0.631793 8.71637 0.624812 14.2759 4.46394 16.53L4.48508 16.5174L15.4688 10.1244C15.4729 10.1214 15.4757 10.1202 15.4799 10.1188C16.966 9.25866 18.8005 9.26146 20.2838 10.1258L29.4455 15.458C29.4525 15.4622 29.4594 15.4663 29.4664 15.4705L32.7537 13.5569C34.3239 12.6428 34.3237 10.3745 32.7535 9.46051L17.2464 0.434017C16.878 0.219614 16.4664 0.112305 16.0543 0.112305C15.6425 0.112305 15.2304 0.219609 14.862 0.434212Z" fill="#70D692"/>
<path d="M15.4792 10.1188C15.475 10.1202 15.4722 10.1214 15.468 10.1244L4.48438 16.5174V16.5426L13.6461 21.8747C15.1291 22.7391 16.9638 22.7419 18.4499 21.8817L29.4447 15.4831V15.458L20.283 10.1258C19.5393 9.69239 18.7072 9.47559 17.8751 9.47559C17.0476 9.47559 16.2201 9.68999 15.4792 10.1188Z" fill="#303344"/>
<path d="M29.4462 15.4833L18.4514 21.8819C16.9653 22.7421 15.1306 22.7393 13.6475 21.8749L4.48582 16.5428C4.47884 16.5386 4.47166 16.5344 4.46468 16.5302L1.17782 18.4439C-0.392607 19.3579 -0.392607 21.6262 1.17782 22.5403L16.6849 31.5668C17.4218 31.9958 18.3323 31.9958 19.0693 31.5666L29.4462 25.526C33.2995 23.2844 33.3065 17.7249 29.4671 15.4707L29.4462 15.4833Z" fill="#70D692"/>
<path d="M47.9943 11.6145C47.6387 11.907 47.461 12.2942 47.461 12.776C47.461 13.2583 47.678 13.6412 48.1128 13.9254C48.5471 14.21 49.5506 14.5459 51.1232 14.933C52.6952 15.3204 53.916 15.9011 54.7852 16.6752C55.6542 17.4494 56.0888 18.5795 56.0888 20.0648C56.0888 21.5502 55.5317 22.7549 54.4178 23.6795C53.3037 24.6037 51.8378 25.066 50.0208 25.066C47.3975 25.066 45.0351 24.0941 42.9336 22.1506L45.138 19.4485C46.9235 21.0129 48.5751 21.7949 50.092 21.7949C50.7712 21.7949 51.3045 21.6491 51.692 21.3566C52.0789 21.0642 52.2728 20.6691 52.2728 20.1715C52.2728 19.6736 52.067 19.2787 51.6563 18.9862C51.2452 18.694 50.4315 18.3978 49.2151 18.0974C47.2869 17.6393 45.8764 17.0426 44.9841 16.3078C44.0909 15.5731 43.6448 14.4197 43.6448 12.847C43.6448 11.2748 44.2094 10.062 45.3395 9.20856C46.4691 8.35533 47.8794 7.92871 49.5705 7.92871C50.6764 7.92871 51.7827 8.11819 52.8891 8.49753C53.9948 8.87668 54.9589 9.41418 55.7808 10.1094L53.9082 12.8115C52.47 11.7212 50.9846 11.1761 49.452 11.1761C48.8357 11.1761 48.3497 11.3223 47.9943 11.6145Z" fill="black"/>
<path d="M62.7952 14.6847V20.3972C62.7952 20.8873 62.9214 21.2706 63.1743 21.5468C63.427 21.8234 63.7274 21.9617 64.075 21.9617C64.739 21.9617 65.2996 21.6615 65.758 21.061L67.0855 23.5496C65.9793 24.5612 64.8138 25.0668 63.5892 25.0668C62.3646 25.0668 61.3293 24.6637 60.4842 23.8578C59.6386 23.052 59.216 21.9539 59.216 20.5632V14.6847H57.7227V12.1248H59.216V8.30859H62.7952V12.1248H65.8764V14.6847H62.7952Z" fill="black"/>
<path d="M76.2374 20.0175V19.4012H74.0094C72.5872 19.4012 71.876 19.8438 71.876 20.7285C71.876 21.1871 72.0457 21.5387 72.3858 21.7834C72.7254 22.0285 73.2113 22.1508 73.8435 22.1508C74.4754 22.1508 75.0324 21.9575 75.5147 21.5702C75.9965 21.1831 76.2374 20.6657 76.2374 20.0175ZM79.8167 24.8766H76.4744V23.3359C75.5579 24.4897 74.4243 25.0663 73.0733 25.0663C71.722 25.0663 70.588 24.6752 69.6719 23.8929C68.7551 23.1107 68.2969 22.0678 68.2969 20.7642C68.2969 19.4605 68.771 18.485 69.719 17.8368C70.6673 17.189 71.9627 16.8649 73.6066 16.8649H76.2614V16.7939C76.2614 15.4351 75.542 14.7554 74.1044 14.7554C73.4879 14.7554 72.8361 14.878 72.1488 15.1227C71.4613 15.3681 70.8806 15.672 70.4065 16.0354L68.8185 13.7362C70.4932 12.5196 72.4055 11.9111 74.5545 11.9111C76.103 11.9111 77.3673 12.2984 78.347 13.0724C79.3269 13.8471 79.8167 15.0717 79.8167 16.7464V24.8766Z" fill="black"/>
<path d="M89.1784 21.9138C90.3635 21.9138 91.4301 21.3213 92.3783 20.136L94.4878 22.5064C92.8442 24.213 91.0664 25.0665 89.1545 25.0665C87.2424 25.0665 85.6265 24.4619 84.3074 23.2529C82.9876 22.0443 82.3281 20.4643 82.3281 18.5125C82.3281 16.5609 82.9956 14.9729 84.3311 13.7481C85.6662 12.5235 87.2504 11.9111 89.0835 11.9111C89.9999 11.9111 90.9281 12.1007 91.8687 12.4801C92.8087 12.8592 93.6344 13.4203 94.3456 14.163L92.4968 16.5807C92.0857 16.091 91.5843 15.7117 90.9916 15.4428C90.3992 15.1742 89.8103 15.0399 89.2259 15.0399C88.2933 15.0399 87.4913 15.3443 86.8198 15.9524C86.148 16.5609 85.8126 17.4066 85.8126 18.4888C85.8126 19.5711 86.148 20.4128 86.8198 21.0131C87.4913 21.6139 88.2775 21.9138 89.1784 21.9138Z" fill="black"/>
<path d="M100.415 24.8768H96.8594V7.28906H100.415V16.32L104.373 12.1007H108.853L103.994 17.2681L109.043 24.8768H104.824L101.576 19.994L100.415 21.2028V24.8768Z" fill="black"/>
<path d="M114.515 24.8767H110.96V12.1246H114.515V24.8767ZM111.256 10.5009C110.853 10.0978 110.652 9.60417 110.652 9.01939C110.652 8.43482 110.853 7.9408 111.256 7.53792C111.659 7.13504 112.153 6.93359 112.737 6.93359C113.322 6.93359 113.816 7.13504 114.219 7.53792C114.622 7.9408 114.823 8.43482 114.823 9.01939C114.823 9.60417 114.622 10.0978 114.219 10.5009C113.816 10.9038 113.322 11.1052 112.737 11.1052C112.153 11.1052 111.659 10.9038 111.256 10.5009Z" fill="black"/>
<path d="M122.124 14.6847V20.3972C122.124 20.8873 122.25 21.2706 122.503 21.5468C122.755 21.8234 123.056 21.9617 123.404 21.9617C124.067 21.9617 124.628 21.6615 125.087 21.061L126.414 23.5496C125.308 24.5612 124.142 25.0668 122.918 25.0668C121.693 25.0668 120.658 24.6637 119.813 23.8578C118.967 23.052 118.545 21.9539 118.545 20.5632V14.6847H117.051V12.1248H118.545V8.30859H122.124V12.1248H125.205V14.6847H122.124Z" fill="black"/>
</svg>
