<svg width="29" height="27" viewBox="0 0 29 27" fill="none" xmlns="http://www.w3.org/2000/svg">
<path d="M27.4651 0.833374L16.52 8.93196L18.5554 4.1592L27.4651 0.833374Z" fill="#E17726" stroke="#E17726" stroke-width="0.25" stroke-linecap="round" stroke-linejoin="round"/>
<path d="M2.21924 0.833374L13.0669 9.00754L11.129 4.15919L2.21924 0.833374Z" fill="#E27625" stroke="#E27625" stroke-width="0.25" stroke-linecap="round" stroke-linejoin="round"/>
<path d="M23.5245 19.6112L20.6123 24.06L26.8481 25.777L28.6344 19.7085L23.5245 19.6112Z" fill="#E27625" stroke="#E27625" stroke-width="0.25" stroke-linecap="round" stroke-linejoin="round"/>
<path d="M1.06055 19.7085L2.836 25.777L9.06096 24.06L6.15957 19.6112L1.06055 19.7085Z" fill="#E27625" stroke="#E27625" stroke-width="0.25" stroke-linecap="round" stroke-linejoin="round"/>
<path d="M8.72529 12.0958L6.99316 14.709L13.164 14.9897L12.9583 8.34888L8.72529 12.0958Z" fill="#E27625" stroke="#E27625" stroke-width="0.25" stroke-linecap="round" stroke-linejoin="round"/>
<path d="M20.9586 12.0958L16.6608 8.27332L16.52 14.9897L22.6908 14.709L20.9586 12.0958Z" fill="#E27625" stroke="#E27625" stroke-width="0.25" stroke-linecap="round" stroke-linejoin="round"/>
<path d="M9.06104 24.06L12.796 22.2568L9.5807 19.7516L9.06104 24.06Z" fill="#E27625" stroke="#E27625" stroke-width="0.25" stroke-linecap="round" stroke-linejoin="round"/>
<path d="M16.8882 22.2568L20.6123 24.06L20.1034 19.7516L16.8882 22.2568Z" fill="#E27625" stroke="#E27625" stroke-width="0.25" stroke-linecap="round" stroke-linejoin="round"/>
<path d="M20.6123 24.0602L16.8882 22.257L17.1913 24.6757L17.1588 25.7015L20.6123 24.0602Z" fill="#D5BFB2" stroke="#D5BFB2" stroke-width="0.25" stroke-linecap="round" stroke-linejoin="round"/>
<path d="M9.06104 24.0602L12.5254 25.7015L12.5037 24.6757L12.796 22.257L9.06104 24.0602Z" fill="#D5BFB2" stroke="#D5BFB2" stroke-width="0.25" stroke-linecap="round" stroke-linejoin="round"/>
<path d="M12.5904 18.1536L9.49414 17.2466L11.681 16.2423L12.5904 18.1536Z" fill="#233447" stroke="#233447" stroke-width="0.25" stroke-linecap="round" stroke-linejoin="round"/>
<path d="M17.0938 18.1536L18.0032 16.2423L20.2008 17.2466L17.0938 18.1536Z" fill="#233447" stroke="#233447" stroke-width="0.25" stroke-linecap="round" stroke-linejoin="round"/>
<path d="M9.061 24.06L9.60234 19.6112L6.15967 19.7085L9.061 24.06Z" fill="#CC6228" stroke="#CC6228" stroke-width="0.25" stroke-linecap="round" stroke-linejoin="round"/>
<path d="M20.0815 19.6112L20.612 24.06L23.5242 19.7085L20.0815 19.6112Z" fill="#CC6228" stroke="#CC6228" stroke-width="0.25" stroke-linecap="round" stroke-linejoin="round"/>
<path d="M22.6908 14.7089L16.52 14.9896L17.0938 18.1535L18.0032 16.2422L20.2009 17.2464L22.6908 14.7089Z" fill="#CC6228" stroke="#CC6228" stroke-width="0.25" stroke-linecap="round" stroke-linejoin="round"/>
<path d="M9.49396 17.2464L11.6808 16.2422L12.5902 18.1535L13.164 14.9896L6.99316 14.7089L9.49396 17.2464Z" fill="#CC6228" stroke="#CC6228" stroke-width="0.25" stroke-linecap="round" stroke-linejoin="round"/>
<path d="M6.99316 14.7089L9.58059 19.7516L9.49392 17.2464L6.99316 14.7089Z" fill="#E27525" stroke="#E27525" stroke-width="0.25" stroke-linecap="round" stroke-linejoin="round"/>
<path d="M20.2009 17.2464L20.1035 19.7516L22.6909 14.7089L20.2009 17.2464Z" fill="#E27525" stroke="#E27525" stroke-width="0.25" stroke-linecap="round" stroke-linejoin="round"/>
<path d="M13.1642 14.9896L12.5903 18.1535L13.3157 21.8896L13.4781 16.9657L13.1642 14.9896Z" fill="#E27525" stroke="#E27525" stroke-width="0.25" stroke-linecap="round" stroke-linejoin="round"/>
<path d="M16.52 14.9896L16.2168 16.955L16.3684 21.8896L17.0937 18.1535L16.52 14.9896Z" fill="#E27525" stroke="#E27525" stroke-width="0.25" stroke-linecap="round" stroke-linejoin="round"/>
<path d="M17.094 18.1535L16.3687 21.8896L16.8883 22.2568L20.1037 19.7516L20.2011 17.2465L17.094 18.1535Z" fill="#F5841F" stroke="#F5841F" stroke-width="0.25" stroke-linecap="round" stroke-linejoin="round"/>
<path d="M9.49414 17.2465L9.58081 19.7516L12.7961 22.2568L13.3157 21.8896L12.5904 18.1535L9.49414 17.2465Z" fill="#F5841F" stroke="#F5841F" stroke-width="0.25" stroke-linecap="round" stroke-linejoin="round"/>
<path d="M17.1589 25.7014L17.1913 24.6756L16.9099 24.438H12.7744L12.5037 24.6756L12.5254 25.7014L9.06104 24.0601L10.2735 25.0535L12.731 26.7488H16.9423L19.4106 25.0535L20.6123 24.0601L17.1589 25.7014Z" fill="#C0AC9D" stroke="#C0AC9D" stroke-width="0.25" stroke-linecap="round" stroke-linejoin="round"/>
<path d="M16.8884 22.2567L16.3687 21.8896H13.3158L12.7962 22.2567L12.5039 24.6756L12.7746 24.438H16.9101L17.1916 24.6756L16.8884 22.2567Z" fill="#161616" stroke="#161616" stroke-width="0.25" stroke-linecap="round" stroke-linejoin="round"/>
<path d="M27.9306 9.46104L28.8509 4.99065L27.4651 0.833374L16.8882 8.66204L20.9587 12.0958L26.7073 13.7695L27.9739 12.2902L27.4219 11.8906L28.2987 11.0916L27.6275 10.5733L28.5044 9.90379L27.9306 9.46104Z" fill="#763E1A" stroke="#763E1A" stroke-width="0.25" stroke-linecap="round" stroke-linejoin="round"/>
<path d="M0.833496 4.99065L1.76453 9.46104L1.1691 9.90379L2.05683 10.5733L1.38562 11.0916L2.26252 11.8906L1.7104 12.2902L2.97704 13.7695L8.72566 12.0958L12.7962 8.66204L2.21922 0.833374L0.833496 4.99065Z" fill="#763E1A" stroke="#763E1A" stroke-width="0.25" stroke-linecap="round" stroke-linejoin="round"/>
<path d="M26.7073 13.7694L20.9588 12.0957L22.6909 14.7089L20.1035 19.7515L23.5245 19.7084H28.6343L26.7073 13.7694Z" fill="#F5841F" stroke="#F5841F" stroke-width="0.25" stroke-linecap="round" stroke-linejoin="round"/>
<path d="M8.72529 12.0957L2.97674 13.7694L1.06055 19.7084H6.15957L9.58054 19.7515L6.99317 14.7089L8.72529 12.0957Z" fill="#F5841F" stroke="#F5841F" stroke-width="0.25" stroke-linecap="round" stroke-linejoin="round"/>
<path d="M16.5202 14.9897L16.8883 8.66196L18.5555 4.15918H11.1289L12.7961 8.66196L13.1642 14.9897L13.3049 16.9765L13.3157 21.8897H16.3687L16.3795 16.9765L16.5202 14.9897Z" fill="#F5841F" stroke="#F5841F" stroke-width="0.25" stroke-linecap="round" stroke-linejoin="round"/>
</svg>
